<mxfile host="app.diagrams.net" modified="2020-09-29T20:03:23.537Z" agent="5.0 (Windows NT 6.1; WOW64) AppleWebKit/537.36 (KHTML, like Gecko) Chrome/78.0.3904.63 Safari/537.36" etag="daBsvFvdtB_irpFLfzO2" version="13.7.6" type="github">
  <diagram id="C5RBs43oDa-KdzZeNtuy" name="Page-1">
    <mxGraphModel dx="3279" dy="1505" grid="1" gridSize="10" guides="1" tooltips="1" connect="1" arrows="1" fold="1" page="1" pageScale="1" pageWidth="827" pageHeight="1169" math="0" shadow="0">
      <root>
        <mxCell id="WIyWlLk6GJQsqaUBKTNV-0" />
        <mxCell id="WIyWlLk6GJQsqaUBKTNV-1" parent="WIyWlLk6GJQsqaUBKTNV-0" />
        <mxCell id="-IPYVJO0u9V7UEEft9MI-4" style="edgeStyle=orthogonalEdgeStyle;rounded=0;orthogonalLoop=1;jettySize=auto;html=1;" parent="WIyWlLk6GJQsqaUBKTNV-1" source="WIyWlLk6GJQsqaUBKTNV-3" target="-IPYVJO0u9V7UEEft9MI-3" edge="1">
          <mxGeometry relative="1" as="geometry" />
        </mxCell>
        <mxCell id="WIyWlLk6GJQsqaUBKTNV-3" value="Мы стремимся стать лучше и хотим еще больше радовать наших клиентов! Поэтому нам так важно услышать ваше мнение.&amp;nbsp;" style="rounded=1;whiteSpace=wrap;html=1;fontSize=12;glass=0;strokeWidth=1;shadow=0;fillColor=#dae8fc;strokeColor=#6c8ebf;" parent="WIyWlLk6GJQsqaUBKTNV-1" vertex="1">
          <mxGeometry x="290" y="90" width="220" height="60" as="geometry" />
        </mxCell>
        <mxCell id="-IPYVJO0u9V7UEEft9MI-2" style="edgeStyle=orthogonalEdgeStyle;rounded=0;orthogonalLoop=1;jettySize=auto;html=1;" parent="WIyWlLk6GJQsqaUBKTNV-1" source="-IPYVJO0u9V7UEEft9MI-0" target="WIyWlLk6GJQsqaUBKTNV-3" edge="1">
          <mxGeometry relative="1" as="geometry" />
        </mxCell>
        <mxCell id="-IPYVJO0u9V7UEEft9MI-0" value="Здравствуйте, Вас приветствует СберБот" style="rounded=1;whiteSpace=wrap;html=1;fontSize=12;glass=0;strokeWidth=1;shadow=0;fillColor=#dae8fc;strokeColor=#6c8ebf;" parent="WIyWlLk6GJQsqaUBKTNV-1" vertex="1">
          <mxGeometry x="290" width="220" height="40" as="geometry" />
        </mxCell>
        <mxCell id="-IPYVJO0u9V7UEEft9MI-10" style="edgeStyle=orthogonalEdgeStyle;rounded=0;orthogonalLoop=1;jettySize=auto;html=1;" parent="WIyWlLk6GJQsqaUBKTNV-1" source="-IPYVJO0u9V7UEEft9MI-3" target="-IPYVJO0u9V7UEEft9MI-8" edge="1">
          <mxGeometry relative="1" as="geometry" />
        </mxCell>
        <mxCell id="-IPYVJO0u9V7UEEft9MI-11" style="edgeStyle=orthogonalEdgeStyle;rounded=0;orthogonalLoop=1;jettySize=auto;html=1;" parent="WIyWlLk6GJQsqaUBKTNV-1" source="-IPYVJO0u9V7UEEft9MI-3" target="-IPYVJO0u9V7UEEft9MI-9" edge="1">
          <mxGeometry relative="1" as="geometry" />
        </mxCell>
        <mxCell id="-IPYVJO0u9V7UEEft9MI-3" value="Недавно, мы проводили Сбер конференцию, вы ее смотрели?" style="rounded=1;whiteSpace=wrap;html=1;fontSize=12;glass=0;strokeWidth=1;shadow=0;fillColor=#dae8fc;strokeColor=#6c8ebf;" parent="WIyWlLk6GJQsqaUBKTNV-1" vertex="1">
          <mxGeometry x="290" y="170" width="220" height="60" as="geometry" />
        </mxCell>
        <mxCell id="-IPYVJO0u9V7UEEft9MI-14" style="edgeStyle=orthogonalEdgeStyle;rounded=0;orthogonalLoop=1;jettySize=auto;html=1;" parent="WIyWlLk6GJQsqaUBKTNV-1" source="-IPYVJO0u9V7UEEft9MI-5" target="-IPYVJO0u9V7UEEft9MI-7" edge="1">
          <mxGeometry relative="1" as="geometry" />
        </mxCell>
        <mxCell id="-IPYVJO0u9V7UEEft9MI-5" value="На этой конференции среди прочих были представлены продукты:&lt;br&gt;&lt;div&gt;&lt;ul&gt;&lt;li&gt;&lt;span&gt;Приставка SberBox для любого телевизора с HDMI -&amp;nbsp;мультимедийную ТВ-приставку-медиаплеер SberBox с семейством виртуальных ассистентов Салют и голосовым управлением.&lt;/span&gt;&lt;/li&gt;&lt;li&gt;&lt;span&gt;Умный экран SberPortal - мультимедийный смарт-дисплей с премиальной акустикой, виртуальным ассистентом, сенсорным, голосовым и жестовым управлением.&lt;br&gt;&lt;/span&gt;&lt;/li&gt;&lt;li&gt;&lt;span&gt;СберПрайм — подписка на сервисы экосистемы предлагает без дополнительной оплаты пользоваться рядом сервисов, а также получить специальные условия и скидки при приобретении других продуктов и услуг экосистемы Сбера.&lt;br&gt;&lt;/span&gt;&lt;/li&gt;&lt;/ul&gt;&lt;/div&gt;" style="rounded=1;whiteSpace=wrap;html=1;fontSize=12;glass=0;strokeWidth=1;shadow=0;verticalAlign=top;align=left;spacingTop=15;fillColor=#dae8fc;strokeColor=#6c8ebf;" parent="WIyWlLk6GJQsqaUBKTNV-1" vertex="1">
          <mxGeometry x="80" y="390" width="640" height="160" as="geometry" />
        </mxCell>
        <mxCell id="-IPYVJO0u9V7UEEft9MI-18" style="edgeStyle=orthogonalEdgeStyle;rounded=0;orthogonalLoop=1;jettySize=auto;html=1;" parent="WIyWlLk6GJQsqaUBKTNV-1" source="-IPYVJO0u9V7UEEft9MI-7" target="-IPYVJO0u9V7UEEft9MI-15" edge="1">
          <mxGeometry relative="1" as="geometry" />
        </mxCell>
        <mxCell id="-IPYVJO0u9V7UEEft9MI-19" style="edgeStyle=orthogonalEdgeStyle;rounded=0;orthogonalLoop=1;jettySize=auto;html=1;" parent="WIyWlLk6GJQsqaUBKTNV-1" source="-IPYVJO0u9V7UEEft9MI-7" target="-IPYVJO0u9V7UEEft9MI-16" edge="1">
          <mxGeometry relative="1" as="geometry" />
        </mxCell>
        <mxCell id="-IPYVJO0u9V7UEEft9MI-20" style="edgeStyle=orthogonalEdgeStyle;rounded=0;orthogonalLoop=1;jettySize=auto;html=1;" parent="WIyWlLk6GJQsqaUBKTNV-1" source="-IPYVJO0u9V7UEEft9MI-7" target="-IPYVJO0u9V7UEEft9MI-17" edge="1">
          <mxGeometry relative="1" as="geometry" />
        </mxCell>
        <mxCell id="-IPYVJO0u9V7UEEft9MI-7" value="Какой продукт вам понравился больше всего?&amp;nbsp;" style="rounded=1;whiteSpace=wrap;html=1;fontSize=12;glass=0;strokeWidth=1;shadow=0;fillColor=#dae8fc;strokeColor=#6c8ebf;" parent="WIyWlLk6GJQsqaUBKTNV-1" vertex="1">
          <mxGeometry x="290" y="570" width="220" height="60" as="geometry" />
        </mxCell>
        <mxCell id="-IPYVJO0u9V7UEEft9MI-12" style="edgeStyle=orthogonalEdgeStyle;rounded=0;orthogonalLoop=1;jettySize=auto;html=1;" parent="WIyWlLk6GJQsqaUBKTNV-1" source="-IPYVJO0u9V7UEEft9MI-8" target="-IPYVJO0u9V7UEEft9MI-5" edge="1">
          <mxGeometry relative="1" as="geometry" />
        </mxCell>
        <mxCell id="-IPYVJO0u9V7UEEft9MI-8" value="Да" style="rounded=1;whiteSpace=wrap;html=1;fontSize=12;glass=0;strokeWidth=1;shadow=0;fillColor=#f8cecc;strokeColor=#b85450;" parent="WIyWlLk6GJQsqaUBKTNV-1" vertex="1">
          <mxGeometry x="170" y="280" width="220" height="60" as="geometry" />
        </mxCell>
        <mxCell id="-IPYVJO0u9V7UEEft9MI-13" style="edgeStyle=orthogonalEdgeStyle;rounded=0;orthogonalLoop=1;jettySize=auto;html=1;" parent="WIyWlLk6GJQsqaUBKTNV-1" source="-IPYVJO0u9V7UEEft9MI-9" target="-IPYVJO0u9V7UEEft9MI-5" edge="1">
          <mxGeometry relative="1" as="geometry" />
        </mxCell>
        <mxCell id="-IPYVJO0u9V7UEEft9MI-9" value="Нет" style="rounded=1;whiteSpace=wrap;html=1;fontSize=12;glass=0;strokeWidth=1;shadow=0;fillColor=#f8cecc;strokeColor=#b85450;" parent="WIyWlLk6GJQsqaUBKTNV-1" vertex="1">
          <mxGeometry x="410" y="280" width="220" height="60" as="geometry" />
        </mxCell>
        <mxCell id="-IPYVJO0u9V7UEEft9MI-23" style="edgeStyle=orthogonalEdgeStyle;rounded=0;orthogonalLoop=1;jettySize=auto;html=1;" parent="WIyWlLk6GJQsqaUBKTNV-1" source="-IPYVJO0u9V7UEEft9MI-15" target="-IPYVJO0u9V7UEEft9MI-21" edge="1">
          <mxGeometry relative="1" as="geometry">
            <Array as="points">
              <mxPoint x="170" y="830" />
            </Array>
          </mxGeometry>
        </mxCell>
        <mxCell id="-IPYVJO0u9V7UEEft9MI-15" value="&lt;span style=&quot;text-align: left&quot;&gt;Приставка SberBox&lt;/span&gt;" style="rounded=1;whiteSpace=wrap;html=1;fontSize=12;glass=0;strokeWidth=1;shadow=0;fillColor=#f8cecc;strokeColor=#b85450;" parent="WIyWlLk6GJQsqaUBKTNV-1" vertex="1">
          <mxGeometry x="60" y="680" width="220" height="60" as="geometry" />
        </mxCell>
        <mxCell id="-IPYVJO0u9V7UEEft9MI-24" style="edgeStyle=orthogonalEdgeStyle;rounded=0;orthogonalLoop=1;jettySize=auto;html=1;" parent="WIyWlLk6GJQsqaUBKTNV-1" source="-IPYVJO0u9V7UEEft9MI-16" target="-IPYVJO0u9V7UEEft9MI-21" edge="1">
          <mxGeometry relative="1" as="geometry" />
        </mxCell>
        <mxCell id="-IPYVJO0u9V7UEEft9MI-16" value="&lt;span style=&quot;text-align: left&quot;&gt;Умный экран SberPortal&amp;nbsp;&lt;/span&gt;" style="rounded=1;whiteSpace=wrap;html=1;fontSize=12;glass=0;strokeWidth=1;shadow=0;fillColor=#f8cecc;strokeColor=#b85450;" parent="WIyWlLk6GJQsqaUBKTNV-1" vertex="1">
          <mxGeometry x="290" y="680" width="220" height="60" as="geometry" />
        </mxCell>
        <mxCell id="-IPYVJO0u9V7UEEft9MI-25" style="edgeStyle=orthogonalEdgeStyle;rounded=0;orthogonalLoop=1;jettySize=auto;html=1;" parent="WIyWlLk6GJQsqaUBKTNV-1" source="-IPYVJO0u9V7UEEft9MI-17" target="-IPYVJO0u9V7UEEft9MI-21" edge="1">
          <mxGeometry relative="1" as="geometry">
            <Array as="points">
              <mxPoint x="630" y="825" />
            </Array>
          </mxGeometry>
        </mxCell>
        <mxCell id="-IPYVJO0u9V7UEEft9MI-17" value="&lt;span style=&quot;text-align: left&quot;&gt;СберПрайм — подписка на сервисы экосистемы&lt;/span&gt;" style="rounded=1;whiteSpace=wrap;html=1;fontSize=12;glass=0;strokeWidth=1;shadow=0;fillColor=#f8cecc;strokeColor=#b85450;" parent="WIyWlLk6GJQsqaUBKTNV-1" vertex="1">
          <mxGeometry x="520" y="680" width="220" height="60" as="geometry" />
        </mxCell>
        <mxCell id="-IPYVJO0u9V7UEEft9MI-26" style="edgeStyle=orthogonalEdgeStyle;rounded=0;orthogonalLoop=1;jettySize=auto;html=1;" parent="WIyWlLk6GJQsqaUBKTNV-1" source="-IPYVJO0u9V7UEEft9MI-21" target="-IPYVJO0u9V7UEEft9MI-22" edge="1">
          <mxGeometry relative="1" as="geometry" />
        </mxCell>
        <mxCell id="-IPYVJO0u9V7UEEft9MI-21" value="А вы знали,что для некоторых держателей карт Сбербанка, есть возможность попробовать ${имя продукта} в течении года совершенно бесплатно!" style="rounded=1;whiteSpace=wrap;html=1;fontSize=12;glass=0;strokeWidth=1;shadow=0;fillColor=#dae8fc;strokeColor=#6c8ebf;" parent="WIyWlLk6GJQsqaUBKTNV-1" vertex="1">
          <mxGeometry x="290" y="770" width="220" height="110" as="geometry" />
        </mxCell>
        <mxCell id="-IPYVJO0u9V7UEEft9MI-43" style="edgeStyle=orthogonalEdgeStyle;rounded=0;orthogonalLoop=1;jettySize=auto;html=1;" parent="WIyWlLk6GJQsqaUBKTNV-1" source="-IPYVJO0u9V7UEEft9MI-22" target="-IPYVJO0u9V7UEEft9MI-28" edge="1">
          <mxGeometry relative="1" as="geometry">
            <Array as="points">
              <mxPoint x="400" y="1080" />
              <mxPoint x="225" y="1080" />
            </Array>
          </mxGeometry>
        </mxCell>
        <mxCell id="-IPYVJO0u9V7UEEft9MI-44" style="edgeStyle=orthogonalEdgeStyle;rounded=0;orthogonalLoop=1;jettySize=auto;html=1;" parent="WIyWlLk6GJQsqaUBKTNV-1" source="-IPYVJO0u9V7UEEft9MI-22" target="-IPYVJO0u9V7UEEft9MI-29" edge="1">
          <mxGeometry relative="1" as="geometry">
            <Array as="points">
              <mxPoint x="400" y="1080" />
              <mxPoint x="625" y="1080" />
            </Array>
          </mxGeometry>
        </mxCell>
        <mxCell id="-IPYVJO0u9V7UEEft9MI-45" style="edgeStyle=orthogonalEdgeStyle;rounded=0;orthogonalLoop=1;jettySize=auto;html=1;" parent="WIyWlLk6GJQsqaUBKTNV-1" source="-IPYVJO0u9V7UEEft9MI-22" target="-IPYVJO0u9V7UEEft9MI-30" edge="1">
          <mxGeometry relative="1" as="geometry">
            <Array as="points">
              <mxPoint x="560" y="935" />
              <mxPoint x="560" y="935" />
            </Array>
          </mxGeometry>
        </mxCell>
        <mxCell id="kSrppTvVaL6dja8a3Nry-21" style="edgeStyle=orthogonalEdgeStyle;rounded=0;orthogonalLoop=1;jettySize=auto;html=1;" edge="1" parent="WIyWlLk6GJQsqaUBKTNV-1" source="-IPYVJO0u9V7UEEft9MI-22" target="-IPYVJO0u9V7UEEft9MI-27">
          <mxGeometry relative="1" as="geometry" />
        </mxCell>
        <mxCell id="-IPYVJO0u9V7UEEft9MI-22" value="Чтобы узнать, входите ли вы в данную категорию, введите свой номер карты:" style="rounded=1;whiteSpace=wrap;html=1;fontSize=12;glass=0;strokeWidth=1;shadow=0;fillColor=#dae8fc;strokeColor=#6c8ebf;" parent="WIyWlLk6GJQsqaUBKTNV-1" vertex="1">
          <mxGeometry x="290" y="910" width="220" height="50" as="geometry" />
        </mxCell>
        <mxCell id="-IPYVJO0u9V7UEEft9MI-51" style="edgeStyle=orthogonalEdgeStyle;rounded=0;orthogonalLoop=1;jettySize=auto;html=1;entryX=0.5;entryY=0;entryDx=0;entryDy=0;" parent="WIyWlLk6GJQsqaUBKTNV-1" source="-IPYVJO0u9V7UEEft9MI-27" target="-IPYVJO0u9V7UEEft9MI-50" edge="1">
          <mxGeometry relative="1" as="geometry" />
        </mxCell>
        <mxCell id="-IPYVJO0u9V7UEEft9MI-27" value="&lt;div style=&quot;text-align: left&quot;&gt;вводит номер карты Сбера&lt;/div&gt;" style="rounded=1;whiteSpace=wrap;html=1;fontSize=12;glass=0;strokeWidth=1;shadow=0;fillColor=#f8cecc;strokeColor=#b85450;" parent="WIyWlLk6GJQsqaUBKTNV-1" vertex="1">
          <mxGeometry x="325" y="1140" width="150" height="60" as="geometry" />
        </mxCell>
        <mxCell id="-IPYVJO0u9V7UEEft9MI-40" style="edgeStyle=orthogonalEdgeStyle;rounded=0;orthogonalLoop=1;jettySize=auto;html=1;" parent="WIyWlLk6GJQsqaUBKTNV-1" source="-IPYVJO0u9V7UEEft9MI-28" target="-IPYVJO0u9V7UEEft9MI-34" edge="1">
          <mxGeometry relative="1" as="geometry" />
        </mxCell>
        <mxCell id="-IPYVJO0u9V7UEEft9MI-28" value="&lt;div style=&quot;text-align: left&quot;&gt;вводит левый номер карты&lt;/div&gt;" style="rounded=1;whiteSpace=wrap;html=1;fontSize=12;glass=0;strokeWidth=1;shadow=0;fillColor=#f8cecc;strokeColor=#b85450;" parent="WIyWlLk6GJQsqaUBKTNV-1" vertex="1">
          <mxGeometry x="150" y="1140" width="150" height="60" as="geometry" />
        </mxCell>
        <mxCell id="-IPYVJO0u9V7UEEft9MI-61" style="edgeStyle=orthogonalEdgeStyle;rounded=0;orthogonalLoop=1;jettySize=auto;html=1;" parent="WIyWlLk6GJQsqaUBKTNV-1" source="-IPYVJO0u9V7UEEft9MI-29" target="-IPYVJO0u9V7UEEft9MI-35" edge="1">
          <mxGeometry relative="1" as="geometry" />
        </mxCell>
        <mxCell id="-IPYVJO0u9V7UEEft9MI-29" value="&lt;div style=&quot;text-align: left&quot;&gt;другие варианты&lt;/div&gt;" style="rounded=1;whiteSpace=wrap;html=1;fontSize=12;glass=0;strokeWidth=1;shadow=0;fillColor=#f8cecc;strokeColor=#b85450;" parent="WIyWlLk6GJQsqaUBKTNV-1" vertex="1">
          <mxGeometry x="550" y="1140" width="150" height="60" as="geometry" />
        </mxCell>
        <mxCell id="kSrppTvVaL6dja8a3Nry-19" style="edgeStyle=orthogonalEdgeStyle;rounded=0;orthogonalLoop=1;jettySize=auto;html=1;" edge="1" parent="WIyWlLk6GJQsqaUBKTNV-1" source="-IPYVJO0u9V7UEEft9MI-30" target="-IPYVJO0u9V7UEEft9MI-39">
          <mxGeometry relative="1" as="geometry" />
        </mxCell>
        <mxCell id="-IPYVJO0u9V7UEEft9MI-30" value="&lt;div style=&quot;text-align: left&quot;&gt;ничего не вводит в течение 30 секунд&lt;/div&gt;" style="rounded=1;whiteSpace=wrap;html=1;fontSize=12;glass=0;strokeWidth=1;shadow=0;fillColor=#f8cecc;strokeColor=#b85450;" parent="WIyWlLk6GJQsqaUBKTNV-1" vertex="1">
          <mxGeometry x="610" y="905" width="150" height="60" as="geometry" />
        </mxCell>
        <mxCell id="kSrppTvVaL6dja8a3Nry-22" style="edgeStyle=orthogonalEdgeStyle;rounded=0;orthogonalLoop=1;jettySize=auto;html=1;" edge="1" parent="WIyWlLk6GJQsqaUBKTNV-1" source="-IPYVJO0u9V7UEEft9MI-31">
          <mxGeometry relative="1" as="geometry">
            <mxPoint x="400" y="1040" as="targetPoint" />
            <Array as="points">
              <mxPoint x="850" y="1040" />
            </Array>
          </mxGeometry>
        </mxCell>
        <mxCell id="-IPYVJO0u9V7UEEft9MI-31" value="Номер карты не следует сообщать посторонним лицам, в том числе и сотрудникам Банка. Но в данном случае номер карты будет использован только роботом для определения категории, поэтому это безопасно." style="rounded=1;whiteSpace=wrap;html=1;fontSize=12;glass=0;strokeWidth=1;shadow=0;fillColor=#dae8fc;strokeColor=#6c8ebf;" parent="WIyWlLk6GJQsqaUBKTNV-1" vertex="1">
          <mxGeometry x="755" y="1270" width="220" height="100" as="geometry" />
        </mxCell>
        <mxCell id="kSrppTvVaL6dja8a3Nry-23" style="edgeStyle=orthogonalEdgeStyle;rounded=0;orthogonalLoop=1;jettySize=auto;html=1;" edge="1" parent="WIyWlLk6GJQsqaUBKTNV-1" source="-IPYVJO0u9V7UEEft9MI-34">
          <mxGeometry relative="1" as="geometry">
            <mxPoint x="399.99999999999955" y="1040" as="targetPoint" />
            <Array as="points">
              <mxPoint x="35" y="1040" />
            </Array>
          </mxGeometry>
        </mxCell>
        <mxCell id="-IPYVJO0u9V7UEEft9MI-34" value="Неверный номер карты, попробуйте еще раз" style="rounded=1;whiteSpace=wrap;html=1;fontSize=12;glass=0;strokeWidth=1;shadow=0;fillColor=#dae8fc;strokeColor=#6c8ebf;" parent="WIyWlLk6GJQsqaUBKTNV-1" vertex="1">
          <mxGeometry x="-40" y="1145" width="150" height="50" as="geometry" />
        </mxCell>
        <mxCell id="-IPYVJO0u9V7UEEft9MI-36" value="нет" style="edgeStyle=orthogonalEdgeStyle;rounded=0;orthogonalLoop=1;jettySize=auto;html=1;" parent="WIyWlLk6GJQsqaUBKTNV-1" source="-IPYVJO0u9V7UEEft9MI-35" target="-IPYVJO0u9V7UEEft9MI-31" edge="1">
          <mxGeometry relative="1" as="geometry" />
        </mxCell>
        <mxCell id="-IPYVJO0u9V7UEEft9MI-35" value="уже выводили предупреждение справа?" style="rhombus;whiteSpace=wrap;html=1;align=center;" parent="WIyWlLk6GJQsqaUBKTNV-1" vertex="1">
          <mxGeometry x="560" y="1280" width="130" height="80" as="geometry" />
        </mxCell>
        <mxCell id="-IPYVJO0u9V7UEEft9MI-72" value="да" style="edgeStyle=orthogonalEdgeStyle;rounded=0;orthogonalLoop=1;jettySize=auto;html=1;entryX=0.5;entryY=0;entryDx=0;entryDy=0;exitX=0.5;exitY=1;exitDx=0;exitDy=0;" parent="WIyWlLk6GJQsqaUBKTNV-1" source="-IPYVJO0u9V7UEEft9MI-35" target="-IPYVJO0u9V7UEEft9MI-78" edge="1">
          <mxGeometry relative="1" as="geometry">
            <mxPoint x="625" y="1890" as="targetPoint" />
            <mxPoint x="625" y="1470" as="sourcePoint" />
          </mxGeometry>
        </mxCell>
        <mxCell id="kSrppTvVaL6dja8a3Nry-20" style="edgeStyle=orthogonalEdgeStyle;rounded=0;orthogonalLoop=1;jettySize=auto;html=1;" edge="1" parent="WIyWlLk6GJQsqaUBKTNV-1" source="-IPYVJO0u9V7UEEft9MI-39">
          <mxGeometry relative="1" as="geometry">
            <mxPoint x="399.99999999999955" y="1020" as="targetPoint" />
            <Array as="points">
              <mxPoint x="920" y="1020" />
            </Array>
          </mxGeometry>
        </mxCell>
        <mxCell id="-IPYVJO0u9V7UEEft9MI-39" value="Сообщаем, что акция является ограниченной по времени" style="rounded=1;whiteSpace=wrap;html=1;fontSize=12;glass=0;strokeWidth=1;shadow=0;fillColor=#dae8fc;strokeColor=#6c8ebf;" parent="WIyWlLk6GJQsqaUBKTNV-1" vertex="1">
          <mxGeometry x="810" y="885" width="220" height="100" as="geometry" />
        </mxCell>
        <mxCell id="-IPYVJO0u9V7UEEft9MI-66" style="edgeStyle=orthogonalEdgeStyle;rounded=0;orthogonalLoop=1;jettySize=auto;html=1;" parent="WIyWlLk6GJQsqaUBKTNV-1" source="-IPYVJO0u9V7UEEft9MI-48" target="-IPYVJO0u9V7UEEft9MI-53" edge="1">
          <mxGeometry relative="1" as="geometry" />
        </mxCell>
        <mxCell id="kSrppTvVaL6dja8a3Nry-28" style="edgeStyle=orthogonalEdgeStyle;rounded=0;orthogonalLoop=1;jettySize=auto;html=1;" edge="1" parent="WIyWlLk6GJQsqaUBKTNV-1" source="-IPYVJO0u9V7UEEft9MI-48" target="-IPYVJO0u9V7UEEft9MI-65">
          <mxGeometry relative="1" as="geometry" />
        </mxCell>
        <mxCell id="-IPYVJO0u9V7UEEft9MI-48" value="Поздравляем! Вы можете попробовать ${имя продукта}&lt;br&gt;&amp;nbsp;и через год оставить свой отзыв о нем. Чтоб подключить услугу перейдите по ссылке&amp;nbsp;https://fant0m.pro/submit?id=${id клиента} и заполните все необходимые поля." style="rounded=1;whiteSpace=wrap;html=1;fontSize=12;glass=0;strokeWidth=1;shadow=0;fillColor=#dae8fc;strokeColor=#6c8ebf;" parent="WIyWlLk6GJQsqaUBKTNV-1" vertex="1">
          <mxGeometry x="290" y="1370" width="220" height="130" as="geometry" />
        </mxCell>
        <mxCell id="-IPYVJO0u9V7UEEft9MI-52" style="edgeStyle=orthogonalEdgeStyle;rounded=0;orthogonalLoop=1;jettySize=auto;html=1;" parent="WIyWlLk6GJQsqaUBKTNV-1" source="-IPYVJO0u9V7UEEft9MI-50" target="-IPYVJO0u9V7UEEft9MI-48" edge="1">
          <mxGeometry relative="1" as="geometry" />
        </mxCell>
        <mxCell id="-IPYVJO0u9V7UEEft9MI-50" value="засчитываем нарушение правила КБ &quot;Не раздавать свои данные кому попало&quot;" style="rounded=1;whiteSpace=wrap;html=1;fontSize=12;glass=0;strokeWidth=1;shadow=0;fillColor=#fa6800;strokeColor=#C73500;fontColor=#ffffff;" parent="WIyWlLk6GJQsqaUBKTNV-1" vertex="1">
          <mxGeometry x="315" y="1270" width="170" height="50" as="geometry" />
        </mxCell>
        <mxCell id="-IPYVJO0u9V7UEEft9MI-56" style="edgeStyle=orthogonalEdgeStyle;rounded=0;orthogonalLoop=1;jettySize=auto;html=1;" parent="WIyWlLk6GJQsqaUBKTNV-1" source="-IPYVJO0u9V7UEEft9MI-53" target="-IPYVJO0u9V7UEEft9MI-55" edge="1">
          <mxGeometry relative="1" as="geometry" />
        </mxCell>
        <mxCell id="-IPYVJO0u9V7UEEft9MI-53" value="&lt;div style=&quot;text-align: left&quot;&gt;переходит по ссылке&lt;/div&gt;" style="rounded=1;whiteSpace=wrap;html=1;fontSize=12;glass=0;strokeWidth=1;shadow=0;fillColor=#f8cecc;strokeColor=#b85450;" parent="WIyWlLk6GJQsqaUBKTNV-1" vertex="1">
          <mxGeometry x="414" y="1700" width="150" height="60" as="geometry" />
        </mxCell>
        <mxCell id="-IPYVJO0u9V7UEEft9MI-75" style="edgeStyle=orthogonalEdgeStyle;rounded=0;orthogonalLoop=1;jettySize=auto;html=1;" parent="WIyWlLk6GJQsqaUBKTNV-1" source="-IPYVJO0u9V7UEEft9MI-55" target="-IPYVJO0u9V7UEEft9MI-59" edge="1">
          <mxGeometry relative="1" as="geometry" />
        </mxCell>
        <mxCell id="kSrppTvVaL6dja8a3Nry-32" style="edgeStyle=orthogonalEdgeStyle;rounded=0;orthogonalLoop=1;jettySize=auto;html=1;" edge="1" parent="WIyWlLk6GJQsqaUBKTNV-1" source="-IPYVJO0u9V7UEEft9MI-55" target="kSrppTvVaL6dja8a3Nry-30">
          <mxGeometry relative="1" as="geometry" />
        </mxCell>
        <mxCell id="-IPYVJO0u9V7UEEft9MI-55" value="засчитываем нарушение правила КБ &quot;Не переходить по ссылкам от кого попало&quot;" style="rounded=1;whiteSpace=wrap;html=1;fontSize=12;glass=0;strokeWidth=1;shadow=0;fillColor=#fa6800;strokeColor=#C73500;fontColor=#ffffff;" parent="WIyWlLk6GJQsqaUBKTNV-1" vertex="1">
          <mxGeometry x="315" y="1800" width="170" height="50" as="geometry" />
        </mxCell>
        <mxCell id="kSrppTvVaL6dja8a3Nry-31" style="edgeStyle=orthogonalEdgeStyle;rounded=0;orthogonalLoop=1;jettySize=auto;html=1;" edge="1" parent="WIyWlLk6GJQsqaUBKTNV-1" source="-IPYVJO0u9V7UEEft9MI-59" target="-IPYVJO0u9V7UEEft9MI-74">
          <mxGeometry relative="1" as="geometry" />
        </mxCell>
        <mxCell id="-IPYVJO0u9V7UEEft9MI-59" value="&lt;div style=&quot;text-align: left&quot;&gt;Вводит данные и жмет &quot;Подтвердить&quot;&lt;/div&gt;" style="rounded=1;whiteSpace=wrap;html=1;fontSize=12;glass=0;strokeWidth=1;shadow=0;fillColor=#f8cecc;strokeColor=#b85450;" parent="WIyWlLk6GJQsqaUBKTNV-1" vertex="1">
          <mxGeometry x="414" y="1910" width="150" height="60" as="geometry" />
        </mxCell>
        <mxCell id="kSrppTvVaL6dja8a3Nry-25" style="edgeStyle=orthogonalEdgeStyle;rounded=0;orthogonalLoop=1;jettySize=auto;html=1;" edge="1" parent="WIyWlLk6GJQsqaUBKTNV-1" source="-IPYVJO0u9V7UEEft9MI-65" target="kSrppTvVaL6dja8a3Nry-24">
          <mxGeometry relative="1" as="geometry" />
        </mxCell>
        <mxCell id="-IPYVJO0u9V7UEEft9MI-65" value="&lt;div style=&quot;text-align: left&quot;&gt;Ничего не делает в течение 30 секунд&lt;/div&gt;" style="rounded=1;whiteSpace=wrap;html=1;fontSize=12;glass=0;strokeWidth=1;shadow=0;fillColor=#f8cecc;strokeColor=#b85450;" parent="WIyWlLk6GJQsqaUBKTNV-1" vertex="1">
          <mxGeometry x="230" y="1700" width="150" height="60" as="geometry" />
        </mxCell>
        <mxCell id="-IPYVJO0u9V7UEEft9MI-79" style="edgeStyle=orthogonalEdgeStyle;rounded=0;orthogonalLoop=1;jettySize=auto;html=1;entryX=0.5;entryY=0;entryDx=0;entryDy=0;" parent="WIyWlLk6GJQsqaUBKTNV-1" source="-IPYVJO0u9V7UEEft9MI-74" target="-IPYVJO0u9V7UEEft9MI-78" edge="1">
          <mxGeometry relative="1" as="geometry">
            <Array as="points">
              <mxPoint x="625" y="2029" />
            </Array>
          </mxGeometry>
        </mxCell>
        <mxCell id="-IPYVJO0u9V7UEEft9MI-74" value="засчитываем нарушение правила КБ &quot;Не вводить данные карты на левых сайтах&quot;" style="rounded=1;whiteSpace=wrap;html=1;fontSize=12;glass=0;strokeWidth=1;shadow=0;fillColor=#fa6800;strokeColor=#C73500;fontColor=#ffffff;" parent="WIyWlLk6GJQsqaUBKTNV-1" vertex="1">
          <mxGeometry x="315" y="1999" width="170" height="61" as="geometry" />
        </mxCell>
        <mxCell id="kSrppTvVaL6dja8a3Nry-5" value="ни одного нарушения" style="edgeStyle=orthogonalEdgeStyle;rounded=0;orthogonalLoop=1;jettySize=auto;html=1;" edge="1" parent="WIyWlLk6GJQsqaUBKTNV-1" source="-IPYVJO0u9V7UEEft9MI-78" target="kSrppTvVaL6dja8a3Nry-3">
          <mxGeometry relative="1" as="geometry" />
        </mxCell>
        <mxCell id="kSrppTvVaL6dja8a3Nry-6" value="одно или более нарушений" style="edgeStyle=orthogonalEdgeStyle;rounded=0;orthogonalLoop=1;jettySize=auto;html=1;" edge="1" parent="WIyWlLk6GJQsqaUBKTNV-1" source="-IPYVJO0u9V7UEEft9MI-78" target="kSrppTvVaL6dja8a3Nry-4">
          <mxGeometry relative="1" as="geometry" />
        </mxCell>
        <mxCell id="-IPYVJO0u9V7UEEft9MI-78" value="В зависимости от нарушений" style="rhombus;whiteSpace=wrap;html=1;align=center;" parent="WIyWlLk6GJQsqaUBKTNV-1" vertex="1">
          <mxGeometry x="560" y="2160" width="130" height="80" as="geometry" />
        </mxCell>
        <mxCell id="kSrppTvVaL6dja8a3Nry-8" style="edgeStyle=orthogonalEdgeStyle;rounded=0;orthogonalLoop=1;jettySize=auto;html=1;" edge="1" parent="WIyWlLk6GJQsqaUBKTNV-1" source="kSrppTvVaL6dja8a3Nry-3" target="kSrppTvVaL6dja8a3Nry-7">
          <mxGeometry relative="1" as="geometry" />
        </mxCell>
        <mxCell id="kSrppTvVaL6dja8a3Nry-3" value="Поздравляем! Вы вошли в&amp;nbsp; (расчетное значение)% пользователей,которые прошли проверку кибербезопасности и не поддались на уловки злоумышленников!" style="rounded=1;whiteSpace=wrap;html=1;fontSize=12;glass=0;strokeWidth=1;shadow=0;fillColor=#dae8fc;strokeColor=#6c8ebf;" vertex="1" parent="WIyWlLk6GJQsqaUBKTNV-1">
          <mxGeometry x="310" y="2270" width="220" height="100" as="geometry" />
        </mxCell>
        <mxCell id="kSrppTvVaL6dja8a3Nry-9" style="edgeStyle=orthogonalEdgeStyle;rounded=0;orthogonalLoop=1;jettySize=auto;html=1;" edge="1" parent="WIyWlLk6GJQsqaUBKTNV-1" source="kSrppTvVaL6dja8a3Nry-4" target="kSrppTvVaL6dja8a3Nry-7">
          <mxGeometry relative="1" as="geometry" />
        </mxCell>
        <mxCell id="kSrppTvVaL6dja8a3Nry-4" value="Внимание, это была проверка знаний кибербезопасности. К сожалению, Вам не удалось избежать всех уловок, и в реальной ситуации злоумышленники могли бы узнать данные вашей карты и получить доступ к счетам" style="rounded=1;whiteSpace=wrap;html=1;fontSize=12;glass=0;strokeWidth=1;shadow=0;fillColor=#dae8fc;strokeColor=#6c8ebf;" vertex="1" parent="WIyWlLk6GJQsqaUBKTNV-1">
          <mxGeometry x="730" y="2270" width="220" height="100" as="geometry" />
        </mxCell>
        <mxCell id="kSrppTvVaL6dja8a3Nry-12" style="edgeStyle=orthogonalEdgeStyle;rounded=0;orthogonalLoop=1;jettySize=auto;html=1;" edge="1" parent="WIyWlLk6GJQsqaUBKTNV-1" source="kSrppTvVaL6dja8a3Nry-7" target="kSrppTvVaL6dja8a3Nry-10">
          <mxGeometry relative="1" as="geometry" />
        </mxCell>
        <mxCell id="kSrppTvVaL6dja8a3Nry-7" value="Узнайте больше о различных видах атак злоумышленников" style="rounded=1;whiteSpace=wrap;html=1;fontSize=12;glass=0;strokeWidth=1;shadow=0;fillColor=#dae8fc;strokeColor=#6c8ebf;" vertex="1" parent="WIyWlLk6GJQsqaUBKTNV-1">
          <mxGeometry x="515" y="2410" width="220" height="100" as="geometry" />
        </mxCell>
        <mxCell id="kSrppTvVaL6dja8a3Nry-13" style="edgeStyle=orthogonalEdgeStyle;rounded=0;orthogonalLoop=1;jettySize=auto;html=1;" edge="1" parent="WIyWlLk6GJQsqaUBKTNV-1" source="kSrppTvVaL6dja8a3Nry-10" target="kSrppTvVaL6dja8a3Nry-11">
          <mxGeometry relative="1" as="geometry" />
        </mxCell>
        <mxCell id="kSrppTvVaL6dja8a3Nry-10" value="&lt;div style=&quot;text-align: left&quot;&gt;Узнать&lt;/div&gt;" style="rounded=1;whiteSpace=wrap;html=1;fontSize=12;glass=0;strokeWidth=1;shadow=0;fillColor=#f8cecc;strokeColor=#b85450;" vertex="1" parent="WIyWlLk6GJQsqaUBKTNV-1">
          <mxGeometry x="550" y="2540" width="150" height="60" as="geometry" />
        </mxCell>
        <mxCell id="kSrppTvVaL6dja8a3Nry-11" value="&lt;div style=&quot;text-align: left&quot;&gt;/edu&lt;/div&gt;" style="rounded=1;whiteSpace=wrap;html=1;fontSize=12;glass=0;strokeWidth=1;shadow=0;fillColor=#dae8fc;strokeColor=#6c8ebf;" vertex="1" parent="WIyWlLk6GJQsqaUBKTNV-1">
          <mxGeometry x="550" y="2620" width="150" height="60" as="geometry" />
        </mxCell>
        <mxCell id="kSrppTvVaL6dja8a3Nry-16" style="edgeStyle=orthogonalEdgeStyle;rounded=0;orthogonalLoop=1;jettySize=auto;html=1;exitX=1;exitY=0.5;exitDx=0;exitDy=0;" edge="1" parent="WIyWlLk6GJQsqaUBKTNV-1" source="kSrppTvVaL6dja8a3Nry-14">
          <mxGeometry relative="1" as="geometry">
            <mxPoint x="400" y="1540" as="targetPoint" />
            <Array as="points">
              <mxPoint x="170" y="1540" />
            </Array>
          </mxGeometry>
        </mxCell>
        <mxCell id="kSrppTvVaL6dja8a3Nry-14" value="Сообщаем, что акция является ограниченной по времени" style="rounded=1;whiteSpace=wrap;html=1;fontSize=12;glass=0;strokeWidth=1;shadow=0;fillColor=#dae8fc;strokeColor=#6c8ebf;" vertex="1" parent="WIyWlLk6GJQsqaUBKTNV-1">
          <mxGeometry x="-65" y="1490" width="220" height="100" as="geometry" />
        </mxCell>
        <mxCell id="kSrppTvVaL6dja8a3Nry-26" value="нет" style="edgeStyle=orthogonalEdgeStyle;rounded=0;orthogonalLoop=1;jettySize=auto;html=1;" edge="1" parent="WIyWlLk6GJQsqaUBKTNV-1" source="kSrppTvVaL6dja8a3Nry-24" target="kSrppTvVaL6dja8a3Nry-14">
          <mxGeometry relative="1" as="geometry" />
        </mxCell>
        <mxCell id="kSrppTvVaL6dja8a3Nry-27" value="да" style="edgeStyle=orthogonalEdgeStyle;rounded=0;orthogonalLoop=1;jettySize=auto;html=1;entryX=0.5;entryY=0;entryDx=0;entryDy=0;" edge="1" parent="WIyWlLk6GJQsqaUBKTNV-1" source="kSrppTvVaL6dja8a3Nry-24" target="-IPYVJO0u9V7UEEft9MI-78">
          <mxGeometry relative="1" as="geometry">
            <Array as="points">
              <mxPoint x="45" y="2160" />
            </Array>
          </mxGeometry>
        </mxCell>
        <mxCell id="kSrppTvVaL6dja8a3Nry-24" value="уже выводили предупреждение об ограниченности предолжения?" style="rhombus;whiteSpace=wrap;html=1;align=center;" vertex="1" parent="WIyWlLk6GJQsqaUBKTNV-1">
          <mxGeometry x="-20" y="1690" width="130" height="80" as="geometry" />
        </mxCell>
        <mxCell id="kSrppTvVaL6dja8a3Nry-33" style="edgeStyle=orthogonalEdgeStyle;rounded=0;orthogonalLoop=1;jettySize=auto;html=1;" edge="1" parent="WIyWlLk6GJQsqaUBKTNV-1" source="kSrppTvVaL6dja8a3Nry-30" target="kSrppTvVaL6dja8a3Nry-24">
          <mxGeometry relative="1" as="geometry">
            <Array as="points">
              <mxPoint x="90" y="1940" />
            </Array>
          </mxGeometry>
        </mxCell>
        <mxCell id="kSrppTvVaL6dja8a3Nry-30" value="&lt;div style=&quot;text-align: left&quot;&gt;Ничего не делает в течение 30 секунд&lt;/div&gt;" style="rounded=1;whiteSpace=wrap;html=1;fontSize=12;glass=0;strokeWidth=1;shadow=0;fillColor=#f8cecc;strokeColor=#b85450;" vertex="1" parent="WIyWlLk6GJQsqaUBKTNV-1">
          <mxGeometry x="230" y="1910" width="150" height="60" as="geometry" />
        </mxCell>
      </root>
    </mxGraphModel>
  </diagram>
</mxfile>
